<?xml version="1.0" encoding="utf-8"?>
<!-- Generator: Adobe Illustrator 26.0.2, SVG Export Plug-In . SVG Version: 6.00 Build 0)  -->
<svg version="1.1" id="Layer_1" xmlns="http://www.w3.org/2000/svg" xmlns:xlink="http://www.w3.org/1999/xlink" x="0px" y="0px"
	 viewBox="0 0 145 41" style="enable-background:new 0 0 145 41;" xml:space="preserve">
<style type="text/css">
	.st0{fill-rule:evenodd;clip-rule:evenodd;fill:#4E5359;}
</style>
<path class="st0" d="M22.7,30.5h-6.3c-9.8,0-2.7-20.7,5.5-20.7h9.9c1.6,0,4.4,0.3,5.8-3.6L39.8,0H26.2C18.9,0,13.2,2.6,9,7
	c-7.1,7.4-9.5,19-7.8,24.6c1.6,5.1,6,8.5,13,8.6l5.4,0h6.6l1.6-4.9C29,31.8,26.3,30.5,22.7,30.5z M98.8,21.9l2-6.6H79.1
	c-3.6,0-5.3,1-5.9,3.1l-2,6.6H93C96.6,25,98.2,24,98.8,21.9z M67.9,33.6l-2,6.6h21.8c3.6,0,5.3-1,5.9-3.1l2-6.6H73.8
	C70.2,30.5,68.6,31.5,67.9,33.6z M103.9,6.7l2-6.6H84.2c-3.6,0-5.3,1-5.9,3.1l-2,6.6H98C101.6,9.8,103.3,8.8,103.9,6.7z M71,8
	c-0.9-6.2-4.2-8-12.2-8H44.2L35.7,25h5.4c3.2,0,4.8,0,6.5-4.5l3.5-10.7h5.4c4.6,0,3.6,5.8,1.3,11.4c-2.1,5-5.7,9.3-10.1,9.3h-9
	c-3.6,0-5.3,1-6,3.1l-2.3,6.6h6.6l6.5,0c5.8,0,10.5-0.5,16-5.4C65.4,29.5,72.2,15.9,71,8z M144.3,0h-12.6l-11.9,12.6
	c-1.4,1.5-2.8,2.9-4.2,4.6h-0.1L121.4,0h-10.3L97.2,40.2h10.3l4.4-12.6l4.6-3.9l3.6,11.4c1.1,3.5,2.3,5.1,4.8,5.1h7.9l-8.1-22.4
	L144.3,0z"/>
</svg>
